<svg width="51" height="38" viewBox="0 0 51 38" fill="none" xmlns="http://www.w3.org/2000/svg">
<g filter="url(#filter0_d_118_89)">
<rect width="43" height="30" rx="12" transform="matrix(-1 0 0 1 47 0)" fill="white"/>
<rect x="-0.347222" y="0.347222" width="42.3056" height="29.3056" rx="11.6528" transform="matrix(-1 0 0 1 46.3056 0)" stroke="#374957" stroke-opacity="0.2" stroke-width="0.694444"/>
<path d="M18.0575 15C18.0635 14.5068 18.3264 14.0352 18.7893 13.6875L24.1105 9.65625C24.3429 9.48164 24.6573 9.38363 24.985 9.38363C25.3127 9.38363 25.6271 9.48164 25.8595 9.65625C25.9757 9.7434 26.068 9.84709 26.131 9.96133C26.194 10.0756 26.2264 10.1981 26.2264 10.3219C26.2264 10.4456 26.194 10.5682 26.131 10.6824C26.068 10.7967 25.9757 10.9003 25.8595 10.9875L21.7786 14.0625H34.1825C34.5114 14.0625 34.8269 14.1613 35.0596 14.3371C35.2922 14.5129 35.4229 14.7514 35.4229 15C35.4229 15.2486 35.2922 15.4871 35.0596 15.6629C34.8269 15.8387 34.5114 15.9375 34.1825 15.9375H21.7786L25.8595 19.0219C26.0931 19.1972 26.2249 19.4354 26.2261 19.6842C26.2273 19.933 26.0976 20.1719 25.8657 20.3484C25.6338 20.525 25.3186 20.6246 24.9894 20.6255C24.6602 20.6264 24.3441 20.5284 24.1105 20.3531L18.7893 16.3219C18.3234 15.9719 18.0602 15.4965 18.0575 15V15Z" fill="black"/>
</g>
<defs>
<filter id="filter0_d_118_89" x="0" y="0" width="51" height="38" filterUnits="userSpaceOnUse" color-interpolation-filters="sRGB">
<feFlood flood-opacity="0" result="BackgroundImageFix"/>
<feColorMatrix in="SourceAlpha" type="matrix" values="0 0 0 0 0 0 0 0 0 0 0 0 0 0 0 0 0 0 127 0" result="hardAlpha"/>
<feOffset dy="4"/>
<feGaussianBlur stdDeviation="2"/>
<feComposite in2="hardAlpha" operator="out"/>
<feColorMatrix type="matrix" values="0 0 0 0 0 0 0 0 0 0 0 0 0 0 0 0 0 0 0.25 0"/>
<feBlend mode="normal" in2="BackgroundImageFix" result="effect1_dropShadow_118_89"/>
<feBlend mode="normal" in="SourceGraphic" in2="effect1_dropShadow_118_89" result="shape"/>
</filter>
</defs>
</svg>
